# xmcd
#
# Track frame offsets:
#   150
#   13717
#   33230
#   52692
#   67677
#   82779
#   98422
#   114672
#   132252
#   147227
#   163687
#   176620
#   191090
#   204082
#   218245
#   230359
#   249400
#
# Disc length: 3483 seconds
#
# Revision: 0
# Processed by: cddbd v1.5.1PL2 Copyright (c) Steve Scherf et al.
# Submitted via: GXTranscoder 2.0.1939
#
DISCID=d10d9911
DTITLE=Los Pasteles Verdes - Exitos Romanticos
DYEAR=1900
DGENRE=Blues
TTITLE0=Recuerdos De Una Noche
TTITLE1=Hipocresia
TTITLE2=Otra Copa
TTITLE3=Angelitos Negros
TTITLE4=Esclavo y Amo
TTITLE5=El  Reloj
TTITLE6=Besame Mucho
TTITLE7=Caminito
TTITLE8=Te Amo Y No Soy Correspondido
TTITLE9=En Mi Viejo San Juan
TTITLE10=Nuestro Juramento
TTITLE11=Escandalo
TTITLE12=Cien Anhos
TTITLE13=Flor Sin Retonho
TTITLE14=El Pecador
TTITLE15=Interrogacion
TTITLE16=Pa' Todo El Anho
EXTD=
EXTT0=
EXTT1=
EXTT2=
EXTT3=
EXTT4=
EXTT5=
EXTT6=
EXTT7=
EXTT8=
EXTT9=
EXTT10=
EXTT11=
EXTT12=
EXTT13=
EXTT14=
EXTT15=
EXTT16=
PLAYORDER=
